<svg xmlns="http://www.w3.org/2000/svg" xmlns:xlink="http://www.w3.org/1999/xlink" width="37.658" height="34.775" viewBox="0 0 37.658 34.775">
  <defs>
    <clipPath id="clip-path">
      <rect id="사각형_897" data-name="사각형 897" width="37.658" height="34.775" fill="none"/>
    </clipPath>
  </defs>
  <g id="그룹_164" data-name="그룹 164" transform="translate(0 0)">
    <path id="패스_665" data-name="패스 665" d="M6.576,5.474,5.3,9.454H7.835L6.6,5.474Z" transform="translate(7.171 7.41)" fill="#3e3a39"/>
    <g id="그룹_163" data-name="그룹 163" transform="translate(0 0)">
      <g id="그룹_162" data-name="그룹 162" clip-path="url(#clip-path)">
        <path id="패스_666" data-name="패스 666" d="M18.827,0C8.428,0,0,6.656,0,14.873c0,5.282,3.493,9.909,8.737,12.557L6.962,34.052a.544.544,0,0,0,.134.565.53.53,0,0,0,.384.158.541.541,0,0,0,.327-.125l7.63-5.152a24.008,24.008,0,0,0,3.389.247c10.4,0,18.831-6.656,18.831-14.873S29.225,0,18.827,0M8.77,19.575a1.133,1.133,0,0,1-.3.819,1.043,1.043,0,0,1-.793.306,1.109,1.109,0,0,1-.694-.221,1.031,1.031,0,0,1-.365-.614,1.17,1.17,0,0,1-.016-.289l0-7.061H4.559a1.37,1.37,0,0,1-.73-.193.8.8,0,0,1-.374-.548c-.012-.064-.024-.137-.031-.212a.827.827,0,0,1,.322-.7,1.274,1.274,0,0,1,.8-.252h6.265a1.327,1.327,0,0,1,.725.193.807.807,0,0,1,.381.551,1.15,1.15,0,0,1,.014.2.857.857,0,0,1-.313.706,1.265,1.265,0,0,1-.8.247H8.774Zm8.956.838a.985.985,0,0,1-.72.287.925.925,0,0,1-.974-.617l-.56-1.652H11.98l-.563,1.652a.9.9,0,0,1-.972.617,1,1,0,0,1-.64-.2.9.9,0,0,1-.332-.558,1.173,1.173,0,0,1-.019-.231,1.216,1.216,0,0,1,.059-.4,4.842,4.842,0,0,1,.146-.466l2.8-7.725a.98.98,0,0,1,.4-.53,1.248,1.248,0,0,1,.664-.158h.52a1.345,1.345,0,0,1,.708.172,1.128,1.128,0,0,1,.45.654l2.617,7.586a4.636,4.636,0,0,1,.177.6,2.376,2.376,0,0,1,.038.261.951.951,0,0,1-.306.7m7.242-.137a1.28,1.28,0,0,1-.807.249H19.639a1.426,1.426,0,0,1-.817-.209,1,1,0,0,1-.41-.668,2.688,2.688,0,0,1-.047-.445l0-7.642a1.135,1.135,0,0,1,.3-.817,1.046,1.046,0,0,1,.8-.308,1.066,1.066,0,0,1,.694.226,1.038,1.038,0,0,1,.362.612,1.067,1.067,0,0,1,.019.287l0,7.063h3.622a1.31,1.31,0,0,1,.732.193.83.83,0,0,1,.367.553,1.329,1.329,0,0,1,.033.2.834.834,0,0,1-.32.7m8.144.172a1.264,1.264,0,0,1-.788.252,1.112,1.112,0,0,1-.541-.115,1.478,1.478,0,0,1-.426-.473l-2.5-4.022-1.191,1.24.012,2.245a1.153,1.153,0,0,1-.3.819,1.055,1.055,0,0,1-.8.306,1.1,1.1,0,0,1-.694-.221,1.02,1.02,0,0,1-.365-.614,1.293,1.293,0,0,1-.019-.289l0-8.014a1.155,1.155,0,0,1,.3-.817,1.044,1.044,0,0,1,.793-.308,1.066,1.066,0,0,1,.694.226,1,1,0,0,1,.362.612,1.174,1.174,0,0,1,.024.287l0,3.283,3.406-3.914a2.535,2.535,0,0,1,.412-.374.825.825,0,0,1,.452-.12,1.111,1.111,0,0,1,.65.2.812.812,0,0,1,.36.53l.016.085a.38.38,0,0,0,0,.092.887.887,0,0,1-.1.412,2.161,2.161,0,0,1-.259.362l-2.227,2.431,2.634,4.173.08.127a2.244,2.244,0,0,1,.311.631l.016.066a.327.327,0,0,0,0,.071.991.991,0,0,1-.325.833" transform="translate(0 0)" fill="#3e3a39"/>
      </g>
    </g>
  </g>
</svg>
